<mxfile host="app.diagrams.net" modified="2023-09-17T09:47:58.306Z" agent="Mozilla/5.0 (Windows NT 10.0; Win64; x64) AppleWebKit/537.36 (KHTML, like Gecko) Chrome/116.0.0.0 Safari/537.36" etag="AsnCFAWc-9zl38dkDs90" version="21.7.5" type="github">
  <diagram name="第 1 页" id="_aEEeicxB6KedfQj_gSC">
    <mxGraphModel dx="1562" dy="841" grid="1" gridSize="10" guides="1" tooltips="1" connect="1" arrows="1" fold="1" page="1" pageScale="1" pageWidth="827" pageHeight="1169" math="0" shadow="0">
      <root>
        <mxCell id="0" />
        <mxCell id="1" parent="0" />
        <mxCell id="zk44DciEownq9eTERCSg-34" style="edgeStyle=orthogonalEdgeStyle;rounded=0;orthogonalLoop=1;jettySize=auto;html=1;exitX=1;exitY=0;exitDx=0;exitDy=0;entryX=0.431;entryY=1.043;entryDx=0;entryDy=0;entryPerimeter=0;startArrow=classic;startFill=1;endArrow=none;endFill=0;fontFamily=Comic Sans MS;fontStyle=1" edge="1" parent="1" source="zk44DciEownq9eTERCSg-8" target="zk44DciEownq9eTERCSg-1">
          <mxGeometry relative="1" as="geometry" />
        </mxCell>
        <mxCell id="zk44DciEownq9eTERCSg-8" value="" style="rounded=0;whiteSpace=wrap;html=1;dashed=1;fontFamily=Comic Sans MS;fontStyle=1" vertex="1" parent="1">
          <mxGeometry x="140" y="390" width="270" height="110" as="geometry" />
        </mxCell>
        <mxCell id="zk44DciEownq9eTERCSg-1" value="&lt;font style=&quot;font-size: 13px;&quot;&gt;SurfaceFlinger&lt;/font&gt;" style="rounded=0;whiteSpace=wrap;html=1;fontFamily=Comic Sans MS;fontStyle=1" vertex="1" parent="1">
          <mxGeometry x="100" y="190" width="720" height="60" as="geometry" />
        </mxCell>
        <mxCell id="zk44DciEownq9eTERCSg-20" style="edgeStyle=orthogonalEdgeStyle;rounded=0;orthogonalLoop=1;jettySize=auto;html=1;exitX=0.5;exitY=0;exitDx=0;exitDy=0;entryX=0.264;entryY=1;entryDx=0;entryDy=0;entryPerimeter=0;startArrow=classic;startFill=1;endArrow=none;endFill=0;fontFamily=Comic Sans MS;fontStyle=1" edge="1" parent="1" source="zk44DciEownq9eTERCSg-2" target="zk44DciEownq9eTERCSg-1">
          <mxGeometry relative="1" as="geometry" />
        </mxCell>
        <mxCell id="zk44DciEownq9eTERCSg-29" style="edgeStyle=orthogonalEdgeStyle;rounded=0;orthogonalLoop=1;jettySize=auto;html=1;exitX=0.25;exitY=1;exitDx=0;exitDy=0;entryX=0.873;entryY=0.008;entryDx=0;entryDy=0;entryPerimeter=0;fontFamily=Comic Sans MS;fontStyle=1" edge="1" parent="1" source="zk44DciEownq9eTERCSg-2" target="zk44DciEownq9eTERCSg-3">
          <mxGeometry relative="1" as="geometry" />
        </mxCell>
        <mxCell id="zk44DciEownq9eTERCSg-33" style="edgeStyle=orthogonalEdgeStyle;rounded=0;orthogonalLoop=1;jettySize=auto;html=1;exitX=0.75;exitY=1;exitDx=0;exitDy=0;entryX=0.713;entryY=0.016;entryDx=0;entryDy=0;entryPerimeter=0;fontFamily=Comic Sans MS;fontStyle=1" edge="1" parent="1" source="zk44DciEownq9eTERCSg-2" target="zk44DciEownq9eTERCSg-8">
          <mxGeometry relative="1" as="geometry" />
        </mxCell>
        <mxCell id="zk44DciEownq9eTERCSg-2" value="DisplayDevice" style="rounded=0;whiteSpace=wrap;html=1;fontFamily=Comic Sans MS;fontStyle=1" vertex="1" parent="1">
          <mxGeometry x="204" y="300" width="172" height="40" as="geometry" />
        </mxCell>
        <mxCell id="zk44DciEownq9eTERCSg-3" value="" style="shape=corner;whiteSpace=wrap;html=1;fontFamily=Comic Sans MS;fontStyle=1" vertex="1" parent="1">
          <mxGeometry x="100" y="370" width="180" height="125" as="geometry" />
        </mxCell>
        <mxCell id="zk44DciEownq9eTERCSg-4" value="OpenGL ES" style="rounded=0;whiteSpace=wrap;html=1;fontFamily=Comic Sans MS;fontStyle=1" vertex="1" parent="1">
          <mxGeometry x="150" y="400" width="230" height="30" as="geometry" />
        </mxCell>
        <mxCell id="zk44DciEownq9eTERCSg-5" value="libagl" style="rounded=0;whiteSpace=wrap;html=1;fontFamily=Comic Sans MS;fontStyle=1" vertex="1" parent="1">
          <mxGeometry x="150" y="450" width="120" height="30" as="geometry" />
        </mxCell>
        <mxCell id="zk44DciEownq9eTERCSg-6" value="libagl" style="rounded=0;whiteSpace=wrap;html=1;fontFamily=Comic Sans MS;fontStyle=1" vertex="1" parent="1">
          <mxGeometry x="275" y="450" width="105" height="30" as="geometry" />
        </mxCell>
        <mxCell id="zk44DciEownq9eTERCSg-9" value="FramebufferNativeWindow" style="rounded=0;whiteSpace=wrap;html=1;fontFamily=Comic Sans MS;fontStyle=1" vertex="1" parent="1">
          <mxGeometry x="100" y="510" width="290" height="40" as="geometry" />
        </mxCell>
        <mxCell id="zk44DciEownq9eTERCSg-10" value="Gralloc" style="rounded=0;whiteSpace=wrap;html=1;fontFamily=Comic Sans MS;fontStyle=1" vertex="1" parent="1">
          <mxGeometry x="100" y="580" width="290" height="40" as="geometry" />
        </mxCell>
        <mxCell id="zk44DciEownq9eTERCSg-11" value="GPU0" style="rounded=0;whiteSpace=wrap;html=1;fontFamily=Comic Sans MS;fontStyle=1" vertex="1" parent="1">
          <mxGeometry x="100" y="660" width="120" height="30" as="geometry" />
        </mxCell>
        <mxCell id="zk44DciEownq9eTERCSg-12" value="fb0" style="rounded=0;whiteSpace=wrap;html=1;fontFamily=Comic Sans MS;fontStyle=1" vertex="1" parent="1">
          <mxGeometry x="260" y="660" width="120" height="30" as="geometry" />
        </mxCell>
        <mxCell id="zk44DciEownq9eTERCSg-17" style="edgeStyle=orthogonalEdgeStyle;rounded=0;orthogonalLoop=1;jettySize=auto;html=1;exitX=0.5;exitY=0;exitDx=0;exitDy=0;entryX=0.666;entryY=0.99;entryDx=0;entryDy=0;entryPerimeter=0;endArrow=none;endFill=0;startArrow=classic;startFill=1;fontFamily=Comic Sans MS;fontStyle=1" edge="1" parent="1" source="zk44DciEownq9eTERCSg-13" target="zk44DciEownq9eTERCSg-1">
          <mxGeometry relative="1" as="geometry" />
        </mxCell>
        <mxCell id="zk44DciEownq9eTERCSg-19" style="edgeStyle=orthogonalEdgeStyle;rounded=0;orthogonalLoop=1;jettySize=auto;html=1;exitX=0.5;exitY=1;exitDx=0;exitDy=0;entryX=0.5;entryY=0;entryDx=0;entryDy=0;fontFamily=Comic Sans MS;fontStyle=1" edge="1" parent="1" source="zk44DciEownq9eTERCSg-13" target="zk44DciEownq9eTERCSg-14">
          <mxGeometry relative="1" as="geometry" />
        </mxCell>
        <mxCell id="zk44DciEownq9eTERCSg-30" style="edgeStyle=orthogonalEdgeStyle;rounded=0;orthogonalLoop=1;jettySize=auto;html=1;exitX=0;exitY=0.5;exitDx=0;exitDy=0;entryX=0.949;entryY=0.002;entryDx=0;entryDy=0;entryPerimeter=0;fontFamily=Comic Sans MS;fontStyle=1" edge="1" parent="1" source="zk44DciEownq9eTERCSg-13" target="zk44DciEownq9eTERCSg-3">
          <mxGeometry relative="1" as="geometry" />
        </mxCell>
        <mxCell id="zk44DciEownq9eTERCSg-13" value="HWComposer" style="rounded=0;whiteSpace=wrap;html=1;fontFamily=Comic Sans MS;fontStyle=1" vertex="1" parent="1">
          <mxGeometry x="520" y="330" width="120" height="30" as="geometry" />
        </mxCell>
        <mxCell id="zk44DciEownq9eTERCSg-14" value="Composer" style="rounded=0;whiteSpace=wrap;html=1;fontFamily=Comic Sans MS;fontStyle=1" vertex="1" parent="1">
          <mxGeometry x="520" y="560" width="120" height="40" as="geometry" />
        </mxCell>
        <mxCell id="zk44DciEownq9eTERCSg-18" style="edgeStyle=orthogonalEdgeStyle;rounded=0;orthogonalLoop=1;jettySize=auto;html=1;exitX=0;exitY=0.5;exitDx=0;exitDy=0;startArrow=classic;startFill=1;fontFamily=Comic Sans MS;fontStyle=1" edge="1" parent="1" source="zk44DciEownq9eTERCSg-15" target="zk44DciEownq9eTERCSg-13">
          <mxGeometry relative="1" as="geometry" />
        </mxCell>
        <mxCell id="zk44DciEownq9eTERCSg-15" value="VsyncThread" style="rounded=0;whiteSpace=wrap;html=1;fontFamily=Comic Sans MS;fontStyle=1" vertex="1" parent="1">
          <mxGeometry x="700" y="330" width="120" height="30" as="geometry" />
        </mxCell>
        <mxCell id="zk44DciEownq9eTERCSg-27" style="edgeStyle=orthogonalEdgeStyle;rounded=0;orthogonalLoop=1;jettySize=auto;html=1;entryX=0.056;entryY=1.017;entryDx=0;entryDy=0;entryPerimeter=0;startArrow=classic;startFill=1;endArrow=none;endFill=0;fontFamily=Comic Sans MS;fontStyle=1" edge="1" parent="1" target="zk44DciEownq9eTERCSg-1">
          <mxGeometry relative="1" as="geometry">
            <mxPoint x="140" y="370" as="sourcePoint" />
          </mxGeometry>
        </mxCell>
        <mxCell id="zk44DciEownq9eTERCSg-21" value="EGL" style="text;html=1;strokeColor=none;fillColor=none;align=center;verticalAlign=middle;whiteSpace=wrap;rounded=0;fontFamily=Comic Sans MS;fontStyle=1" vertex="1" parent="1">
          <mxGeometry x="110" y="360" width="60" height="30" as="geometry" />
        </mxCell>
        <mxCell id="zk44DciEownq9eTERCSg-35" value="" style="endArrow=none;html=1;rounded=0;" edge="1" parent="1">
          <mxGeometry width="50" height="50" relative="1" as="geometry">
            <mxPoint x="10" y="720" as="sourcePoint" />
            <mxPoint x="830" y="720" as="targetPoint" />
          </mxGeometry>
        </mxCell>
        <mxCell id="zk44DciEownq9eTERCSg-38" value="Android" style="text;html=1;strokeColor=none;fillColor=none;align=center;verticalAlign=middle;whiteSpace=wrap;rounded=0;fontSize=14;fontStyle=1;fontFamily=Comic Sans MS;" vertex="1" parent="1">
          <mxGeometry x="20" y="660" width="60" height="30" as="geometry" />
        </mxCell>
        <mxCell id="zk44DciEownq9eTERCSg-39" value="Kernel" style="text;html=1;strokeColor=none;fillColor=none;align=center;verticalAlign=middle;whiteSpace=wrap;rounded=0;fontSize=15;fontStyle=1;fontFamily=Comic Sans MS;" vertex="1" parent="1">
          <mxGeometry x="20" y="740" width="60" height="30" as="geometry" />
        </mxCell>
        <mxCell id="zk44DciEownq9eTERCSg-40" value="/dev/graphics/fb*" style="rounded=0;whiteSpace=wrap;html=1;fontFamily=Comic Sans MS;fontStyle=1" vertex="1" parent="1">
          <mxGeometry x="130" y="740" width="290" height="30" as="geometry" />
        </mxCell>
      </root>
    </mxGraphModel>
  </diagram>
</mxfile>
